<svg xmlns="http://www.w3.org/2000/svg" width="133" height="23" viewBox="0 0 133 23"><defs><clipPath id="dbhla"><path d="M26.2 4.8h16v18.1h-16z"/></clipPath><clipPath id="dbhlb"><path d="M42.2 4.8h16v18.1h-16z"/></clipPath><clipPath id="dbhlc"><path d="M58.2.54h16v22.357h-16z"/></clipPath><clipPath id="dbhld"><path d="M74.2 4.8h17.6v18.1H74.2z"/></clipPath><clipPath id="dbhle"><path d="M91.8.54h17.6v22.357H91.8z"/></clipPath><clipPath id="dbhlf"><path d="M109.4.54h6.4v22.357h-6.4z"/></clipPath><clipPath id="dbhlg"><path d="M115.8 4.8h16.894v18.1H115.8z"/></clipPath></defs><g><g opacity=".8"><g opacity=".8"><path fill="#2e3134" d="M17.47.54l-4.576 12.118L8.29.54H.42v21.963h5.664V7.983l5.562 14.52h2.499l5.531-14.52v14.52h5.664V.54z"/></g><g opacity=".8"><g opacity=".8"/><g clip-path="url(#dbhla)" opacity=".8"><path fill="#2e3134" d="M36.83 20.928c-.987 1.183-2.894 1.976-4.938 1.976-2.436 0-5.462-1.681-5.462-5.238 0-3.85 3.024-5.131 5.462-5.131 2.112 0 3.988.688 4.938 1.875v-1.58c0-1.383-1.18-2.338-3.226-2.338-1.58 0-3.161.624-4.443 1.712l-1.875-3.525c2.043-1.744 4.774-2.469 7.206-2.469 3.82 0 7.413 1.42 7.413 6.357v9.944H36.83zm.003-3.918c-.525-.757-1.714-1.12-2.829-1.12-1.32 0-2.54.595-2.54 1.845s1.22 1.845 2.54 1.845c1.115 0 2.304-.396 2.83-1.152z"/></g></g><g opacity=".8"><g opacity=".8"/><g clip-path="url(#dbhlb)" opacity=".8"><path fill="#2e3134" d="M42.59 20.436l2.107-3.62c1.187 1.05 3.719 2.138 5.6 2.138 1.512 0 2.138-.432 2.138-1.12 0-1.974-9.25.064-9.25-6.387 0-2.8 2.437-5.237 6.811-5.237 2.701 0 4.938.856 6.652 2.106L54.71 11.91c-.957-.927-2.768-1.75-4.675-1.75-1.187 0-1.976.462-1.976 1.087 0 1.744 9.213-.064 9.213 6.456 0 3.024-2.663 5.2-7.207 5.2-2.862 0-5.792-.956-7.475-2.468"/></g></g><g opacity=".8"><g opacity=".8"/><g clip-path="url(#dbhlc)" opacity=".8"><path fill="#2e3134" d="M69.03 22.503v-9.259c0-1.936-1.02-2.562-2.639-2.562-1.48 0-2.467.82-3.056 1.544v10.276H58.26V.54h5.075v8c.95-1.12 2.832-2.336 5.495-2.336 3.625 0 5.268 2.042 5.268 4.973v11.326z"/></g></g><g opacity=".8"><g opacity=".8"/><g clip-path="url(#dbhld)" opacity=".8"><path fill="#2e3134" d="M85.516 20.928c-.988 1.183-2.9 1.976-4.937 1.976-2.439 0-5.469-1.681-5.469-5.238 0-3.85 3.03-5.131 5.469-5.131 2.105 0 3.98.688 4.937 1.875v-1.58c0-1.383-1.188-2.338-3.225-2.338-1.581 0-3.163.624-4.45 1.712l-1.875-3.525c2.043-1.744 4.774-2.469 7.213-2.469 3.817 0 7.405 1.42 7.405 6.357v9.944h-5.068zm-.003-3.918c-.526-.757-1.71-1.12-2.828-1.12-1.317 0-2.535.595-2.535 1.845s1.218 1.845 2.535 1.845c1.118 0 2.302-.396 2.828-1.152z"/></g></g><g opacity=".8"><g opacity=".8"/><g clip-path="url(#dbhle)" opacity=".8"><path fill="#2e3134" d="M92.23.54h5.069v7.936a5.88 5.88 0 0 1 4.712-2.272c3.98 0 7.013 3.13 7.013 8.33 0 5.4-3.095 8.363-7.013 8.363-1.781 0-3.394-.725-4.712-2.239v1.845H92.23zm11.61 13.994c0-2.368-1.514-3.856-3.515-3.856-1.086 0-2.394.593-3.023 1.45v4.874c.629.856 1.939 1.42 3.023 1.42 2.001 0 3.516-1.488 3.516-3.888z"/></g></g><g opacity=".8"><g opacity=".8"/><g clip-path="url(#dbhlf)" opacity=".8"><path fill="#2e3134" d="M110.04.54h5.069v21.963h-5.069z"/></g></g><g opacity=".8"><g opacity=".8"/><g clip-path="url(#dbhlg)" opacity=".8"><path fill="#2e3134" d="M116.13 14.541c0-4.606 3.456-8.331 8.432-8.331 4.706 0 8.131 3.456 8.131 8.856v1.157h-11.325c.362 1.413 1.68 2.6 3.981 2.6 1.12 0 2.963-.495 3.888-1.35l2.2 3.324c-1.576 1.413-4.213 2.107-6.645 2.107-4.905 0-8.662-3.193-8.662-8.363m8.427-4.25c-2.205 0-3.058 1.319-3.259 2.47h6.547c-.136-1.12-.954-2.47-3.288-2.47"/></g></g></g></g></svg>